  http://www.scenespeeds.com/

Complete name: Top.Cat.2011.BRRip.XviD.AC3-PRESTiGE
Format: AVI
Format/Info: Audio Video Interleave
File size: 1.67 GiB
Duration: 1h 30mn
Overall bit rate: 2 634 Kbps
Subs: N/A
Source: Own Source
Encoder: akosipalos iMDB: http://www.imdb.com/title/tt1821680/ Video
ID: 0
Format: MPEG-4 Visual
Format profile: Advanced Simple@L5
Format settings, BVOP: 2
Format settings, QPel: No
Format settings, GMC: No warppoints
Format settings, Matrix: Default (H.263)
Codec ID: XVID
Codec ID/Hint: XviD
Duration: 1h 30mn
Bit rate: 2 178 Kbps
Width: 720 pixels
Height: 400 pixels
Display aspect ratio: 16:9
Frame rate: 24.000 fps
Color space: YUV
Chroma subsampling: 4:2:0
Bit depth: 8 bits
Scan type: Progressive
Compression mode: Lossy
Bits/(Pixel*Frame): 0.315
Stream size: 1.38 GiB (83%)
Writing library: XviD 1.2.1 (UTC 2008-12-04) Audio
ID: 1
Format: AC-3
Format/Info: Audio Coding 3
Mode extension: CM (complete main)
Codec ID: 2000
Duration: 1h 30mn
Bit rate mode: Constant
Bit rate: 448 Kbps
Channel(s): 6 channels
Channel positions: Front: L C R, Side: L R, LFE
Sampling rate: 48.0 KHz
Bit depth: 16 bits
Compression mode: Lossy
Stream size: 290 MiB (17%)
Alignment: Aligned on interleaves
Interleave, duration: 64 ms (1.54 video frames)
Interleave, preload duration: 192 ms Plot:

Top Cat and the gang face a new police chief, who is not at all happy with the poor officer Dribble's
performance trying to prevent Top Cat's scams
Cast:

R ul Anaya,
Jorge Arvizu
and
Mario Casta eda Partido    
        
http://www.scenespeeds.com/	